<svg width="22" height="22" viewBox="0 0 22 22" fill="none" xmlns="http://www.w3.org/2000/svg">
<path d="M18.0123 12.2221C17.1305 11.3403 15.6956 11.3403 14.8137 12.2221L13.8493 13.1866C11.4544 11.8817 9.51649 9.9437 8.21126 7.54886L9.17571 6.58441C10.0578 5.70259 10.0578 4.26768 9.17571 3.38586L6.5767 0.786852C5.69488 -0.0949662 4.25997 -0.0949662 3.37815 0.786852L1.29906 2.86594C0.108122 4.05688 0.0487109 6.1043 1.13168 8.63123C2.07201 10.8252 3.79282 13.2366 5.97716 15.421C8.1615 17.6053 10.5729 19.3261 12.7669 20.2665C13.9675 20.781 15.0595 21.0376 16.0032 21.0376C17.0457 21.0376 17.907 20.7243 18.5322 20.0991L20.6113 18.0197V18.02C21.0386 17.5927 21.2739 17.0248 21.2739 16.4207C21.2739 15.8164 21.0386 15.2485 20.6113 14.8214L18.0123 12.2221ZM16.8928 18.4597C16.5529 18.7996 15.5077 18.9187 13.6804 18.1358C11.7509 17.3089 9.59732 15.7624 7.61654 13.7816C5.63577 11.8008 4.08957 9.64755 3.26264 7.71805C2.47944 5.89078 2.59856 4.8452 2.93844 4.50532L4.97772 2.46605L7.49652 4.98514L6.28929 6.19266C5.74343 6.73852 5.61164 7.56636 5.96178 8.25275C7.54899 11.365 10.0331 13.8492 13.1454 15.4364C13.8321 15.7865 14.6599 15.655 15.2058 15.1089L16.413 13.9016L18.9321 16.4207L16.8928 18.4597Z" fill="#C4C4C4"/>
</svg>
